<svg xmlns="http://www.w3.org/2000/svg" width="42" height="42" fill-rule="evenodd" stroke-linejoin="round" stroke-miterlimit="2" clip-rule="evenodd" id="snow">
  <path d="m12.515 30.899 18.384-18.384a.999.999 0 1 0-1.414-1.414L11.101 29.485a.999.999 0 1 0 1.414 1.414Z"></path>
  <path d="m11.101 12.515 18.384 18.384a.999.999 0 1 0 1.414-1.414L12.515 11.101a.999.999 0 1 0-1.414 1.414Z"></path>
  <path d="M28.464 20H13.536l-3.95-3.95a1 1 0 0 0-1.414 1.414L10.707 20H8a1 1 0 0 0 0 2h2.707l-2.535 2.536a.999.999 0 1 0 1.414 1.414l3.95-3.95h14.928l3.95 3.95a1 1 0 0 0 1.414-1.414L31.293 22H34a1 1 0 0 0 0-2h-2.707l2.535-2.536a.999.999 0 1 0-1.414-1.414L28.464 20Z"></path>
  <path d="m20 10.707-2.536-2.535a.999.999 0 1 0-1.414 1.414l3.95 3.95v14.928l-3.95 3.95a1 1 0 0 0 1.414 1.414L20 31.293V34a1 1 0 0 0 2 0v-2.707l2.536 2.535a.999.999 0 1 0 1.414-1.414L22 28.464V13.536l3.95-3.95a1 1 0 0 0-1.414-1.414L22 10.707V8a1 1 0 0 0-2 0v2.707Z"></path>
</svg>
