<svg xmlns="http://www.w3.org/2000/svg" width="48" height="48" id="weather">
  <g transform="translate(-590.22 -135.376)">
    <circle cx="614.22" cy="159.376" r="24" fill="#239fdb" fill-rule="evenodd"></circle>
    <path fill="#0b5ecd" d="M619.72 147.374a6.5 6.5 0 0 0-5.258 2.69 4 4 0 0 0-2.242-.69 4 4 0 0 0-4 4 4 4 0 0 0 .041.535 2.5 2.5 0 0 0-1.541-.535 2.5 2.5 0 0 0-2.45 2h-.05c-2.216 0-4 1.784-4 4s1.784 4 4 4l.986.986a.5.5 0 0 0-.486.508v7a.5.5 0 0 0 .508.508l10.912 10.912a24 24 0 0 0 20.959-16.683l-10.043-10.043c-.028-.028-.061-.05-.09-.077a4.016 4.016 0 0 0-.338-.283c-.047-.035-.09-.074-.138-.107a4.032 4.032 0 0 0-.555-.324 6.5 6.5 0 0 0 .285-1.897 6.5 6.5 0 0 0-6.5-6.5z"></path>
    <path fill="#fff" d="M619.72 147.374a6.5 6.5 0 0 0-5.258 2.69 4 4 0 0 0-2.242-.69 4 4 0 0 0-4 4 4 4 0 0 0 .041.536 2.5 2.5 0 0 0-1.54-.536 2.5 2.5 0 0 0-2.45 2h-.05c-2.217 0-4 1.784-4 4s1.783 4 4 4h20c2.215 0 4-1.784 4-4a3.98 3.98 0 0 0-2.286-3.603 6.5 6.5 0 0 0 .285-1.897 6.5 6.5 0 0 0-6.5-6.5zm-7.508 16.479a.5.5 0 0 0-.492.508v7a.5.5 0 1 0 1 0v-7a.5.5 0 0 0-.508-.508zm-7 .508a.5.5 0 0 0-.492.508v7a.5.5 0 1 0 1 0v-7a.5.5 0 0 0-.508-.508zm14 0a.5.5 0 0 0-.492.508v7a.5.5 0 1 0 1 0v-7a.5.5 0 0 0-.508-.508zm-10.5.332a.5.5 0 0 0-.492.506v3.162a.5.5 0 1 0 1 0v-3.162a.5.5 0 0 0-.508-.506zm14 0a.5.5 0 0 0-.492.506v3.162a.5.5 0 1 0 1 0v-3.162a.5.5 0 0 0-.508-.506zm-7 .12a.5.5 0 0 0-.492.507v3.92a.5.5 0 1 0 1 0v-3.92a.5.5 0 0 0-.508-.506z"></path>
  </g>
</svg>
